<svg width="235" height="32" viewBox="0 0 235 32" fill="none" xmlns="http://www.w3.org/2000/svg">
<path d="M17.509 13.7965C18.7451 14.029 19.6159 14.5531 20.1252 15.3615C20.6344 16.1735 20.889 17.4505 20.889 19.1927C20.889 22.6548 19.8484 25.4857 17.7673 27.6929C15.6861 29.8964 13.0256 31 9.78582 31C8.50909 31 7.26925 30.7712 6.06631 30.3098C4.86338 29.8484 3.8302 29.2062 2.96674 28.3831C1.97782 27.4751 1.23613 26.5192 0.741668 25.5079C0.24721 24.4966 0 23.4631 0 22.4075C0 21.2264 0.254589 20.3147 0.763807 19.6688C1.27302 19.0229 2.07376 18.5837 3.17338 18.3511C2.96674 17.8713 2.81546 17.4653 2.71952 17.1368C2.62358 16.8083 2.5756 16.5536 2.5756 16.3728C2.5756 15.7564 2.90031 15.1216 3.55343 14.4756C4.20656 13.8297 4.8191 13.5086 5.39843 13.5086C5.64566 13.5086 5.90767 13.5529 6.18072 13.6415C6.45378 13.7301 6.7711 13.8777 7.12903 14.0844C6.07 11.091 5.30249 8.78051 4.82279 7.15281C4.34309 5.5251 4.10326 4.40305 4.10326 3.78297C4.10326 2.93036 4.25086 2.28076 4.6789 1.77141C5.19919 1.14764 5.98514 1 6.74159 1C8.26924 1 8.81536 2.31029 11.4537 9.65527C11.8079 10.6407 12.0589 11.4048 12.236 11.9437C12.3873 11.5192 12.6013 10.9139 12.8743 10.1314C14.8522 4.41781 15.6972 1.56102 17.9813 1.56102C18.6824 1.56102 19.2396 1.79724 19.6602 2.27338C20.0772 2.74582 20.2875 3.38435 20.2875 4.1779C20.2875 4.78322 20.0588 5.88681 19.5975 7.49606C19.1399 9.09793 18.4425 11.1981 17.509 13.7965ZM2.7601 22.2008C2.95198 22.4333 3.22135 22.7766 3.56452 23.2306C4.47225 24.4818 5.30988 25.1056 6.07739 25.1056C6.33938 25.1056 6.57186 25.0244 6.7785 24.8583C6.98514 24.6922 7.08845 24.5224 7.08845 24.3415C7.08845 24.1348 6.95192 23.7916 6.67517 23.3118C6.39842 22.8319 6.02204 22.2894 5.54234 21.6841C4.99253 20.9828 4.53499 20.4734 4.17337 20.1486C3.80806 19.8275 3.51653 19.6651 3.29882 19.6651C2.81913 19.6651 2.37634 19.9235 1.97044 20.4365C1.56454 20.9532 1.36158 21.5586 1.36158 22.2598C1.36158 22.8246 1.50181 23.452 1.78225 24.1459C2.06269 24.8398 2.47228 25.5374 3.00732 26.2387C3.81912 27.3238 4.82279 28.158 6.02573 28.7411C7.22866 29.3243 8.55705 29.6159 10.0109 29.6159C12.6898 29.6159 14.9297 28.6157 16.7378 26.6189C18.5422 24.622 19.4462 22.1159 19.4462 19.1078C19.4462 18.1887 19.3761 17.4579 19.2396 16.9117C19.103 16.3691 18.8743 15.9742 18.5606 15.7269C17.996 15.2618 16.9038 14.841 15.2765 14.4683C13.6492 14.0992 11.9482 13.9109 10.177 13.9109C9.6825 13.9109 9.33196 13.9921 9.12533 14.1582C8.91869 14.3243 8.81536 14.6048 8.81536 15.0034C8.81536 15.9373 9.33564 16.6127 10.3799 17.0335C11.4242 17.4542 13.1142 17.6609 15.4463 17.6609H16.2913C16.4831 17.6609 16.6381 17.7347 16.7562 17.8787C16.8743 18.0226 16.9518 18.2404 16.9924 18.5283C16.7599 18.7498 16.2765 19.0007 15.5496 19.2812C14.8227 19.5618 14.2655 19.8423 13.8817 20.1154C13.0589 20.7207 12.3947 21.4368 11.8928 22.2672C11.391 23.0977 11.14 23.8839 11.14 24.6257C11.14 25.0797 11.2471 25.626 11.4611 26.2645C11.6751 26.903 11.7821 27.298 11.7821 27.4493V27.5933L11.7415 27.7778C11.1364 27.7372 10.6603 27.3829 10.3098 26.7185C9.95925 26.0541 9.78582 25.1646 9.78582 24.05V23.8654C9.67512 23.9614 9.56812 24.0315 9.4648 24.0721C9.36148 24.1127 9.24709 24.1348 9.12533 24.1348C8.99987 24.1348 8.88547 24.1238 8.77477 24.1053C8.66407 24.0832 8.5423 24.0536 8.40577 24.013C8.44636 24.1644 8.47957 24.312 8.49802 24.456C8.52016 24.5999 8.52755 24.7143 8.52755 24.7955C8.52755 25.3049 8.32829 25.7404 7.92977 26.1021C7.53126 26.4675 7.05892 26.6484 6.50912 26.6484C5.64566 26.6484 4.76377 26.2276 3.87079 25.3824C2.97781 24.5372 2.53132 23.7104 2.53132 22.8984C2.53132 22.747 2.54978 22.6142 2.58299 22.4961C2.61989 22.3816 2.67523 22.282 2.7601 22.2008ZM8.93713 22.6954C9.1696 22.6954 9.38361 22.5883 9.57549 22.3743C9.76737 22.1602 9.86332 21.9313 9.86332 21.6841C9.86332 21.422 9.67512 20.8167 9.29505 19.8607C8.91867 18.9048 8.44637 17.9673 7.8855 17.0482C7.47222 16.3617 7.06999 15.8413 6.67148 15.4943C6.27296 15.1437 5.89658 14.9702 5.53865 14.9702C5.25083 14.9702 4.92981 15.1511 4.57926 15.5165C4.22871 15.8819 4.05529 16.2215 4.05529 16.5352C4.05529 16.8637 4.22871 17.3583 4.57187 18.0189C4.91504 18.6796 5.37629 19.3772 5.95192 20.1191C6.55708 20.9311 7.12534 21.5623 7.66039 22.0162C8.19913 22.4702 8.62348 22.6954 8.93713 22.6954ZM10.9592 12.7446L8.73419 6.31496C8.15855 4.67987 7.71206 3.61319 7.39472 3.11122C7.07738 2.60925 6.73422 2.35827 6.36522 2.35827C6.0774 2.35827 5.84493 2.469 5.66412 2.68676C5.487 2.90822 5.39476 3.20349 5.39476 3.57259C5.39476 4.20374 5.63459 5.30364 6.11428 6.8686C6.59398 8.43356 7.31724 10.4894 8.27663 13.0288C8.35781 12.8775 8.47587 12.7704 8.62716 12.7077C8.77845 12.6449 8.98511 12.6154 9.24341 12.6154C9.32459 12.6154 9.49062 12.6228 9.73785 12.6375C9.98877 12.656 10.3947 12.6892 10.9592 12.7446ZM13.2839 18.986C12.6935 18.9601 12.1327 18.8974 11.605 18.8014C11.0773 18.7055 10.5718 18.5689 10.0921 18.388C10.3098 18.8273 10.5054 19.2665 10.6788 19.7057C10.8522 20.1449 10.9924 20.5768 11.0995 21.0049C11.4279 20.5915 11.7747 20.2188 12.14 19.8829C12.5053 19.547 12.8854 19.248 13.2839 18.986ZM16.0256 13.4459C16.9444 10.9471 17.6639 8.88386 18.1768 7.25615C18.6934 5.62845 18.9481 4.6282 18.9481 4.2591C18.9481 3.86048 18.8632 3.55044 18.6898 3.33268C18.5163 3.11491 18.2802 3.00418 17.9776 3.00418C17.5938 3.00418 17.2027 3.3253 16.8042 3.96383C16.4057 4.60236 15.9666 5.62844 15.4869 7.04577L13.4278 12.9993L16.0256 13.4459Z" fill="black"/>
<path d="M150.556 25.5077L142.781 6.14136H145.516L152.062 22.4332H152.183L158.545 6.14136H161.25L153.445 25.5077H150.556Z" fill="#4039A8"/>
<path d="M173.481 20.99C172.806 24.0314 170.562 25.8768 167.212 25.8768C163.216 25.8768 160.297 23.1714 160.297 18.9895C160.297 14.7486 163.216 11.7036 167.09 11.7036C171.363 11.7036 173.544 14.7486 173.544 18.4064V19.4214H162.85C162.972 22.0346 164.847 23.88 167.245 23.88C169.489 23.88 170.81 22.8023 171.363 20.7427L173.481 20.99ZM170.928 17.7605C170.835 15.6086 169.636 13.6414 167.086 13.6414C164.658 13.6414 163.216 15.5459 162.906 17.7605H170.928Z" fill="#4039A8"/>
<path d="M178.12 25.5077H175.57V12.0727H178.12V14.4718C178.766 12.8441 180.578 11.7036 182.578 11.7036C186.079 11.7036 187.496 14.04 187.496 17.1736V25.5077H184.947V17.3914C184.947 15.1473 183.869 13.7336 181.751 13.7336C179.722 13.7336 178.124 15.3318 178.124 17.79V25.5077H178.12Z" fill="#4039A8"/>
<path d="M190.654 13.9182H188.625V12.5341L189.485 12.3791C190.743 12.1318 191.02 11.5191 191.33 10.2273L191.728 8.35229H193.171V12.0728H196.95V13.9182H193.171V22.0642C193.171 23.2637 193.662 23.8174 194.832 23.8174C195.691 23.8174 196.584 23.4483 197.352 23.0164V24.7364C196.367 25.4746 195.385 25.8732 193.909 25.8732C192.005 25.8732 190.651 24.98 190.651 22.3705V13.9182H190.654Z" fill="#4039A8"/>
<path d="M208.02 12.0728H210.57V25.5078H208.02V23.1419C207.374 24.7401 205.655 25.8769 203.625 25.8769C200.12 25.8769 198.832 23.57 198.832 20.4364V12.0728H201.382V20.1891C201.382 22.4332 202.363 23.8764 204.485 23.8764C206.481 23.8764 208.02 22.2782 208.02 19.7868V12.0728Z" fill="#4039A8"/>
<path d="M221.477 14.6268C220.739 14.2282 220.219 14.0732 219.389 14.0732C217.452 14.0732 216.009 15.8264 216.009 18.4064V25.5077H213.459V12.0727H216.009V14.8077C216.5 13.2723 217.883 11.7036 219.821 11.7036C220.651 11.7036 221.263 11.9177 221.725 12.3163L221.477 14.6268Z" fill="#4039A8"/>
<path d="M234.938 20.99C234.263 24.0314 232.019 25.8768 228.669 25.8768C224.673 25.8768 221.754 23.1714 221.754 18.9895C221.754 14.7486 224.673 11.7036 228.547 11.7036C232.82 11.7036 235.001 14.7486 235.001 18.4064V19.4214H224.307C224.429 22.0346 226.304 23.88 228.702 23.88C230.946 23.88 232.267 22.8023 232.82 20.7427L234.938 20.99ZM232.388 17.7605C232.296 15.6086 231.097 13.6414 228.547 13.6414C226.119 13.6414 224.676 15.5459 224.366 17.7605H232.388Z" fill="#4039A8"/>
<path d="M40.4233 6.1416L48.342 25.5597H44.2424L42.3014 20.7504H34.0433L32.1651 25.5597H28.2832L36.1429 6.1416H40.4233ZM35.213 17.7939H41.128L38.2019 10.5191H38.0801L35.213 17.7939Z" fill="black"/>
<path d="M53.0948 25.5591H49.3975V11.9653H53.0948V14.1836C53.7738 12.6408 55.497 11.5925 57.5339 11.5925C61.1685 11.5925 62.4969 14.0581 62.4969 17.081V25.5591H58.7995V17.8228C58.7995 15.7264 57.9693 14.5231 56.1501 14.5231C54.2719 14.5231 53.0985 16.0032 53.0985 18.2842V25.5591H53.0948Z" fill="black"/>
<path d="M70.6072 20.8424C69.4965 20.8424 68.4817 20.6874 67.6183 20.3478C67.2788 20.5619 67.0648 20.9014 67.0648 21.3333C67.0648 21.9497 67.467 22.352 68.4817 22.352H73.906C76.9244 22.352 78.4668 23.9871 78.4668 26.1758C78.4668 29.5678 74.5222 30.9851 70.3009 30.9851C66.5408 30.9851 63.3379 30.0291 63.3379 27.5008C63.3379 26.113 64.4486 25.1276 66.05 24.9135C64.8176 24.5112 64.1718 23.5257 64.1718 22.4184C64.1718 21.1856 65.0353 20.2592 66.36 19.7388C65.1903 18.9378 64.4818 17.7346 64.4818 16.2545C64.4818 13.3571 67.039 11.6002 70.6146 11.6002C72.2787 11.6002 73.8175 12.0321 74.9281 12.8035C75.6994 11.7257 77.0536 10.8621 78.5332 10.8621V13.8222C77.7952 13.8222 76.8986 13.944 76.1901 14.1913C76.5591 14.7782 76.7768 15.4868 76.7768 16.2545C76.7694 19.0892 74.1828 20.8424 70.6072 20.8424ZM70.3009 28.7336C73.013 28.7336 74.9835 28.1172 74.9835 26.7922C74.9835 25.899 74.2455 25.5594 73.013 25.5594H68.4817C67.4965 25.5594 66.6958 25.9617 66.6958 26.9472C66.6958 28.18 68.1127 28.7336 70.3009 28.7336ZM70.6404 13.848C69.2529 13.848 68.2972 14.6785 68.2972 16.2508C68.2972 17.8232 69.2529 18.6536 70.6404 18.6536C72.0573 18.6536 73.013 17.8232 73.013 16.2508C73.013 14.6785 72.0573 13.848 70.6404 13.848Z" fill="black"/>
<path d="M92.5228 21.123C91.8143 24.1422 89.4711 25.9323 85.9915 25.9323C81.7996 25.9323 78.7812 23.249 78.7812 18.9675C78.7812 14.6823 81.8329 11.6003 85.8992 11.6003C90.3383 11.6003 92.6187 14.6823 92.6187 18.3806V19.7057H82.4196C82.5413 21.7098 84.1133 23.1272 86.1169 23.1272C87.9361 23.1272 89.0136 22.3558 89.5375 20.8166L92.5228 21.123ZM89.0099 17.3914C88.8881 15.8191 87.9324 14.3095 85.866 14.3095C83.8328 14.3095 82.8144 15.6973 82.4749 17.3914H89.0099Z" fill="black"/>
<path d="M97.7696 6.14136V25.5594H94.0723V6.14136H97.7696Z" fill="black"/>
<path d="M103.935 6.14136V22.3557H111.245V25.5631H100.083V6.14136H103.935Z" fill="black"/>
<path d="M112.112 6.14136H115.902V9.74741H112.112V6.14136ZM115.872 11.9657V25.5594H112.175V11.9657H115.872Z" fill="black"/>
<path d="M120.272 20.9384C120.486 22.5735 121.722 23.404 123.6 23.404C124.955 23.404 126.065 22.9426 126.065 21.9571C126.065 21.0307 125.449 20.6321 124.095 20.4143L121.936 20.0452C119.04 19.5839 117.438 18.5024 117.438 15.9778C117.438 13.3868 119.626 11.6003 123.076 11.6003C126.837 11.6003 129.087 13.2945 129.331 16.3174L126.279 16.4392C126.032 14.9 124.984 14.1286 123.043 14.1286C121.718 14.1286 120.855 14.7155 120.855 15.6382C120.855 16.3764 121.349 16.8083 122.335 16.9633L124.921 17.3951C127.789 17.8565 129.482 19.0597 129.482 21.6176C129.482 24.3932 127.08 25.9323 123.567 25.9323C120.025 25.9323 117.313 24.3895 117.065 21.0639L120.272 20.9384Z" fill="black"/>
<path d="M131.47 14.5567H129.529V12.368L130.452 12.213C131.776 11.9989 132.145 11.3197 132.455 10.0538L132.887 8.20459H135.138V11.9657H138.835V14.553H135.138V21.2742C135.138 22.4443 135.662 22.9684 136.773 22.9684C137.511 22.9684 138.282 22.6916 139.083 22.3225V24.7585C138.097 25.4967 136.987 25.9285 135.323 25.9285C133.227 25.9285 131.47 25.0058 131.47 22.1047V14.5567Z" fill="black"/>
</svg>
